<svg width="75" height="25" viewBox="0 0 75 25" version="1.1" xmlns="http://www.w3.org/2000/svg" xmlns:xlink="http://www.w3.org/1999/xlink">
<title>Group</title>
<desc>Created using Figma</desc>
<g id="Canvas" transform="translate(-7746 3114)">
<g id="Group">
<g id="Stores">
<use xlink:href="#path0_fill" transform="translate(7759 -3114)" fill="#EDEDED"/>
</g>
<g id="Ellipse">
<use xlink:href="#path1_fill" transform="translate(7746 -3106)" fill="#F58E33"/>
</g>
</g>
</g>
<defs>
<path id="path0_fill" d="M 6.1 19.28C 9.14 19.28 11.3 17.68 11.3 14.98C 11.3 12.02 8.92 11.28 6.8 10.64C 4.62 9.98 4.28 9.54 4.28 8.9C 4.28 8.34 4.78 7.84 5.78 7.84C 7.06 7.84 7.72 8.46 8.2 9.46L 10.9 7.88C 9.88 5.82 8.08 4.72 5.78 4.72C 3.36 4.72 1.08 6.28 1.08 8.98C 1.08 11.66 3.12 12.66 5.2 13.24C 7.3 13.82 8.1 14.16 8.1 15.02C 8.1 15.56 7.72 16.16 6.2 16.16C 4.62 16.16 3.76 15.38 3.26 14.22L 0.5 15.82C 1.28 17.88 3.16 19.28 6.1 19.28ZM 18.3663 11.88L 18.3663 9L 16.3062 9L 16.3062 6.2L 13.3063 7.1L 13.3063 9L 11.7063 9L 11.7063 11.88L 13.3063 11.88L 13.3063 15.42C 13.3063 18.22 14.4462 19.4 18.3663 19L 18.3663 16.28C 17.0463 16.36 16.3062 16.28 16.3062 15.42L 16.3062 11.88L 18.3663 11.88ZM 24.6695 19.28C 27.6095 19.28 29.9695 16.98 29.9695 14C 29.9695 11.02 27.6095 8.72 24.6695 8.72C 21.7295 8.72 19.3695 11.02 19.3695 14C 19.3695 16.98 21.7295 19.28 24.6695 19.28ZM 24.6695 16.36C 23.3695 16.36 22.3695 15.42 22.3695 14C 22.3695 12.58 23.3695 11.64 24.6695 11.64C 25.9695 11.64 26.9695 12.58 26.9695 14C 26.9695 15.42 25.9695 16.36 24.6695 16.36ZM 34.6664 10.78L 34.6664 9L 31.6664 9L 31.6664 19L 34.6664 19L 34.6664 14.48C 34.6664 12.5 36.4264 12 37.6664 12.2L 37.6664 8.8C 36.4064 8.8 35.0664 9.44 34.6664 10.78ZM 41.4558 15.2L 48.5558 15.2C 48.6358 14.82 48.6758 14.42 48.6758 14C 48.6758 10.98 46.5158 8.72 43.5958 8.72C 40.4358 8.72 38.2758 11.02 38.2758 14C 38.2758 16.98 40.3958 19.28 43.8158 19.28C 45.7158 19.28 47.1958 18.58 48.1758 17.22L 45.7758 15.84C 45.3758 16.28 44.6758 16.6 43.8558 16.6C 42.7558 16.6 41.8358 16.24 41.4558 15.2ZM 41.3958 12.96C 41.6758 11.94 42.4358 11.38 43.5758 11.38C 44.4758 11.38 45.3758 11.8 45.6958 12.96L 41.3958 12.96ZM 52.8267 11.92C 52.8267 11.56 53.1467 11.36 53.6667 11.36C 54.3267 11.36 54.7267 11.72 55.0067 12.24L 57.5667 10.86C 56.7267 9.44 55.2867 8.72 53.6667 8.72C 51.5867 8.72 49.7467 9.82 49.7467 12C 49.7467 15.46 54.6667 14.88 54.6667 15.98C 54.6667 16.38 54.3067 16.6 53.5867 16.6C 52.7067 16.6 52.1467 16.18 51.8867 15.42L 49.2867 16.9C 50.0667 18.52 51.5867 19.28 53.5867 19.28C 55.7467 19.28 57.7467 18.3 57.7467 16C 57.7467 12.3 52.8267 13.06 52.8267 11.92Z"/>
<path id="path1_fill" d="M 9 4.5C 9 6.98528 6.98528 9 4.5 9C 2.01472 9 0 6.98528 0 4.5C 0 2.01472 2.01472 0 4.5 0C 6.98528 0 9 2.01472 9 4.5Z"/>
</defs>
</svg>
